<?xml version="1.0" encoding="UTF-8" standalone="no"?>
<!-- Created with Inkscape (http://www.inkscape.org/) -->

<svg
   width="512"
   height="512"
   viewBox="0 0 135.46666 135.46667"
   version="1.1"
   id="svg29312"
   xml:space="preserve"
   xmlns="http://www.w3.org/2000/svg"
   xmlns:svg="http://www.w3.org/2000/svg"><defs
     id="defs29309" /><g
     id="layer1"><path
       id="rect17"
       style="fill:#6565ff;fill-opacity:1;stroke-width:19.8438;paint-order:stroke fill markers"
       d="M 33.866666,22.991666 V 124.77423 a 2.754936,2.754936 45 0 0 2.754936,2.75494 H 99.1 a 2.5,2.5 135 0 0 2.5,-2.5 l 0,-102.037504 a 5,5 45 0 0 -5,-5 H 38.866666 a 5,5 135 0 0 -5,5 z m 12.9375,1.879167 h 11.960417 a 5,5 45 0 1 5,5 v 11.960416 a 5,5 135 0 1 -5,5 H 46.804166 a 5,5 45 0 1 -5,-5 l 0,-11.960416 a 5,5 135 0 1 5,-5 z m 29.897916,0 h 11.960417 a 5,5 45 0 1 5,5 v 11.960416 a 5,5 135 0 1 -5,5 H 76.702082 a 5,5 45 0 1 -5,-5 V 29.870833 a 5,5 135 0 1 5,-5 z M 46.804166,54.768749 h 11.960417 a 5,5 45 0 1 5,5 l 0,11.960417 a 5,5 135 0 1 -5,5 H 46.804166 a 5,5 45 0 1 -5,-5 V 59.768749 a 5,5 135 0 1 5,-5 z m 29.897916,0 h 11.960417 a 5,5 45 0 1 5,5 v 11.960417 a 5,5 135 0 1 -5,5 l -11.960417,0 a 5,5 45 0 1 -5,-5 V 59.768749 a 5,5 135 0 1 5,-5 z" /></g></svg>
